<?xml version="1.0" encoding="utf-8"?>
<svg data-design="Fingerprint" data-payload="https://pillarvalley.expo.app" viewBox="-50 -50 900 1100" xmlns="http://www.w3.org/2000/svg">
    <title>App Clip Code</title>
    <g id="Lockup" transform="translate(-24.15 -26.94) scale(5.5512 5.5512)">
        <path id="Badge" d="M152.4310303,32.1852074c0-1.1612282-0.0148468-2.3521557-0.0407562-3.5133858 c-0.0704956-2.5529976-0.2195129-5.113636-0.6737823-7.6220226c-0.4611359-2.5529995-1.2130127-4.9272823-2.4039459-7.2721958 c-1.1574097-2.2774506-2.6722565-4.3616982-4.4919739-6.1631856c-1.7900391-1.8159418-3.8818512-3.3270316-6.1520691-4.5030775 c-2.3109741-1.1684729-4.7042542-1.9279852-7.2572174-2.3594007c-2.5232391-0.4691474-5.0762024-0.6177706-7.6291733-0.7073264 c-1.1836853-0.0148821-2.3300323-0.0148821-3.5133209-0.0148821C118.8842621,0,117.5073395,0,116.1003571,0H36.3419037 c-1.3956223,0-2.7800827,0-4.1607933,0.0297312c-1.1686039,0-2.3409309,0-3.5095024,0.0148821 c-2.5530663,0.0895558-5.1061325,0.238179-7.6294022,0.7073264c-2.5530682,0.4314154-4.9349251,1.1909277-7.253499,2.3594007 c-2.2813702,1.1760457-4.3729277,2.6871355-6.1779394,4.5030775c-1.8049788,1.8014874-3.3234119,3.885735-4.4920168,6.1631856 c-1.179767,2.3449135-1.942704,4.7191963-2.389298,7.2721958c-0.4540351,2.5083866-0.6103299,5.069025-0.6736116,7.6220226 c-0.0186026,1.1612301-0.0409257,2.3521576-0.0483668,3.5133858C0,33.5548859,0,34.9466553,0,36.3163338V47.685215v91.325943 v11.5986938c0,1.3696747,0,2.7614441,0.0076386,4.1311188c0,1.1612244,0.0148492,2.3521576,0.0407611,3.513382 c0.0705252,2.553009,0.2195436,5.1136169,0.6738091,7.6220245c0.461114,2.553009,1.213021,4.9272919,2.4039495,7.2722015 c1.1573782,2.2774506,2.672255,4.3616943,4.4919844,6.1631927c1.7899976,1.8159332,3.8818517,3.3269958,6.1520267,4.503067 c2.3109694,1.1684723,4.7042837,1.9279938,7.2572203,2.3594055c2.5232697,0.4691467,5.0762367,0.6177673,7.6292038,0.7073212 c1.1836853,0.0148468,2.3299999,0.0148468,3.5133247,0.0148468c1.3845253,0.0297699,2.7614136,0.0297699,4.1684303,0.0297699 h79.7584534c1.3956223,0,2.7800522,0,4.160759-0.0297699c1.1686096,0,2.3409348,0,3.5095367-0.0148468 c2.5530396-0.0895538,5.1061325-0.2381744,7.6294022-0.7073212c2.5530396-0.4314117,4.9348907-1.1909332,7.2534943-2.3594055 c2.2813416-1.1760712,4.3729401-2.6871338,6.1779175-4.503067c1.8049774-1.8014984,3.3234406-3.8857422,4.4920197-6.1631927 c1.1797638-2.3449097,1.9427032-4.7191925,2.3892975-7.2722015c0.4540253-2.5084076,0.6103516-5.0690155,0.6735992-7.6220245 c0.0186462-1.1612244,0.0409698-2.3521576,0.0484009-3.513382c0.0074463-1.3696747,0.0074463-2.7614441,0.0074463-4.1311188 v-11.3688812V47.9149971V36.3163338C152.4386749,34.9466553,152.4386749,33.5548859,152.4310303,32.1852074z" style="fill:#f09458"/>
        <g id="Text" style="fill:#000000">
            <g>
                <path d="M57.3476753,167.5298157h-5.2077217l-1.2497902,3.6929321h-2.2062607l4.9332199-13.6633759 h2.2913704l4.9330368,13.6633759h-2.2440681L57.3476753,167.5298157z M52.6796455,165.825531h4.1283379l-2.035862-5.9936066 h-0.0568008L52.6796455,165.825531z"/>
                <path d="M71.4081955,166.2421265c0,3.1531525-1.6568832,5.1508331-4.1566391,5.1508331 c-1.4296875,0-2.5660553-0.700592-3.1340637-1.8084717h-0.0473022v4.9333954h-2.0453529v-13.2562714h1.9790611v1.7138672 h0.0378036c0.586998-1.1456757,1.7326813-1.8747711,3.1720428-1.8747711 C69.7418137,161.100708,71.4081955,163.0890808,71.4081955,166.2421265z M69.3062286,166.2421265 c0-2.0829773-1.013092-3.418045-2.6321716-3.418045c-1.5624619,0-2.6133575,1.3633881-2.6133575,3.418045 c0,2.073761,1.0415802,3.418335,2.6133575,3.418335C68.2931366,169.6604614,69.3062286,168.3348846,69.3062286,166.2421265z"/>
                <path d="M82.2482758,166.2421265c0,3.1531525-1.6568832,5.1508331-4.1566467,5.1508331 c-1.4296799,0-2.5660553-0.700592-3.1340561-1.8084717h-0.0473022v4.9333954h-2.0453568v-13.2562714h1.9790573v1.7138672 h0.0378113c0.586998-1.1456757,1.7326813-1.8747711,3.1720428-1.8747711 C80.5818939,161.100708,82.2482758,163.0890808,82.2482758,166.2421265z M80.1463013,166.2421265 c0-2.0829773-1.0130844-3.418045-2.6321716-3.418045c-1.5624619,0-2.6133575,1.3633881-2.6133575,3.418045 c0,2.073761,1.0413971,3.418335,2.6133575,3.418335C79.1332169,169.6604614,80.1463013,168.3348846,80.1463013,166.2421265z"/>
                <path d="M85.5269852,164.3863525c0-4.3272247,2.442955-7.054184,6.2588043-7.054184 c3.0962448,0,5.4349213,1.9032593,5.7947159,4.7533264h-2.1019745 c-0.3787918-1.7516785-1.8369675-2.8973694-3.6927414-2.8973694c-2.4807663,0-4.0903549,2.035675-4.0903549,5.1982269 c0,3.1909485,1.5905914,5.2076263,4.0998459,5.2076263c1.9032669,0,3.2571564-0.9752808,3.6832504-2.622757h2.1114731 c-0.5206985,2.8218384-2.6606598,4.4787292-5.8042145,4.4787292 C87.9509506,171.4499512,85.5269852,168.7417908,85.5269852,164.3863525z"/>
                <path d="M99.3533707,157.5593719h2.0451736v13.6633759h-2.0451736V157.5593719z"/>
                <path d="M103.4451752,158.6294403c0-0.6532898,0.5301971-1.1741638,1.1834869-1.1741638 c0.6534805,0,1.1836777,0.520874,1.1836777,1.1741638c0,0.6437988-0.5301971,1.173996-1.1836777,1.173996 C103.9753723,159.8034363,103.4451752,159.2732391,103.4451752,158.6294403z M103.6060791,161.2616119h2.0451736v9.9611359 h-2.0451736V161.2616119z"/>
                <path d="M117.1278229,166.2421265c0,3.1531525-1.6568909,5.1508331-4.1566467,5.1508331 c-1.4296875,0-2.5660553-0.700592-3.1340561-1.8084717h-0.0473022v4.9333954h-2.0453568v-13.2562714h1.9790573v1.7138672 h0.0378036c0.586998-1.1456757,1.7326813-1.8747711,3.1720505-1.8747711 C115.461441,161.100708,117.1278229,163.0890808,117.1278229,166.2421265z M115.0258484,166.2421265 c0-2.0829773-1.013092-3.418045-2.6321716-3.418045c-1.5624619,0-2.6133575,1.3633881-2.6133575,3.418045 c0,2.073761,1.0415802,3.418335,2.6133575,3.418335C114.0127563,169.6604614,115.0258484,168.3348846,115.0258484,166.2421265z"/>
            </g>
            <g>
                <path d="M43.5211601,158.8928223c0.5111351-0.6393127,0.8579903-1.4977417,0.76651-2.374939 c-0.74823,0.0372162-1.6613007,0.4936371-2.1899261,1.1334534c-0.4746475,0.5479126-0.8947487,1.4422607-0.7852325,2.2826996 C42.1524391,160.006897,42.9915886,159.5142059,43.5211601,158.8928223"/>
                <path d="M44.2781258,160.0981293c-1.2197762-0.0726624-2.2568817,0.692276-2.8393898,0.692276 c-0.5828285,0-1.4748344-0.6556549-2.4396133-0.6379852c-1.2557182,0.0184326-2.4208794,0.7284241-3.0581055,1.8576508 c-1.3106613,2.2590027-0.3458824,5.6098938,0.9286652,7.4497223c0.6189499,0.9102173,1.3648911,1.9124451,2.3477821,1.8764343 c0.9286652-0.036438,1.2926636-0.6013184,2.4214973-0.6013184c1.1280022,0,1.4558868,0.6013184,2.4389381,0.5831146 c1.0194473-0.0182343,1.6567841-0.910675,2.2757263-1.8217926c0.7100525-1.0376129,1.0007172-2.039505,1.019001-2.0944977 c-0.0182838-0.018219-1.9657822-0.7653198-1.9838371-3.0055542c-0.0183868-1.8757629,1.5290031-2.7679901,1.6018295-2.8233185 C46.1167984,160.2804718,44.7514648,160.1347504,44.2781258,160.0981293"/>
            </g>
        </g>
    </g>
    <circle cx="400.000000" cy="400.000000" id="Background" r="400.000000" style="fill:#f09458" transform="translate(-0.99 -3.8)"/>
    <g id="Markers" transform="translate(-0.99 -3.8)">
        <g name="ring-1" transform="rotate(-78 400 400)">
            <path d="M 572.177279 441.897395 A 177.201600 177.201600 0 0 0 575.685616 423.129450" data-color="0" style="fill:none;stroke:#000000;stroke-linecap:round;stroke-miterlimit:10;stroke-width:23.500000px"/>
            <path d="M 545.415446 501.265764 A 177.201600 177.201600 0 0 0 555.466637 485.032534" data-color="1" style="fill:none;stroke:#885533;stroke-linecap:round;stroke-miterlimit:10;stroke-width:23.500000px"/>
            <path d="M 439.241007 572.802055 A 177.201600 177.201600 0 0 0 514.251027 535.451504" data-color="0" style="fill:none;stroke:#000000;stroke-linecap:round;stroke-miterlimit:10;stroke-width:23.500000px"/>
            <path d="M 374.167847 575.308605 A 177.201600 177.201600 0 0 0 393.179440 577.070288" data-color="0" style="fill:none;stroke:#000000;stroke-linecap:round;stroke-miterlimit:10;stroke-width:23.500000px"/>
            <path d="M 312.583462 554.138756 A 177.201600 177.201600 0 0 0 329.674851 562.649256" data-color="0" style="fill:none;stroke:#000000;stroke-linecap:round;stroke-miterlimit:10;stroke-width:23.500000px"/>
            <path d="M 262.805165 512.151614 A 177.201600 177.201600 0 0 0 275.668063 526.261540" data-color="0" style="fill:none;stroke:#000000;stroke-linecap:round;stroke-miterlimit:10;stroke-width:23.500000px"/>
            <path d="M 231.555791 455.017774 A 177.201600 177.201600 0 0 0 238.452993 472.821504" data-color="1" style="fill:none;stroke:#885533;stroke-linecap:round;stroke-miterlimit:10;stroke-width:23.500000px"/>
            <path d="M 275.668063 273.738460 A 177.201600 177.201600 0 0 0 223.055740 409.546520" data-color="1" style="fill:none;stroke:#885533;stroke-linecap:round;stroke-miterlimit:10;stroke-width:23.500000px"/>
            <path d="M 329.674851 237.350744 A 177.201600 177.201600 0 0 0 312.583462 245.861244" data-color="0" style="fill:none;stroke:#000000;stroke-linecap:round;stroke-miterlimit:10;stroke-width:23.500000px"/>
            <path d="M 457.605183 232.423003 A 177.201600 177.201600 0 0 0 374.167847 224.691395" data-color="1" style="fill:none;stroke:#885533;stroke-linecap:round;stroke-miterlimit:10;stroke-width:23.500000px"/>
            <path d="M 514.251027 264.548496 A 177.201600 177.201600 0 0 0 499.014452 253.042369" data-color="0" style="fill:none;stroke:#000000;stroke-linecap:round;stroke-miterlimit:10;stroke-width:23.500000px"/>
            <path d="M 555.466637 314.967466 A 177.201600 177.201600 0 0 0 545.415446 298.734236" data-color="1" style="fill:none;stroke:#885533;stroke-linecap:round;stroke-miterlimit:10;stroke-width:23.500000px"/>
            <path d="M 575.685616 376.870550 A 177.201600 177.201600 0 0 0 572.177279 358.102605" data-color="0" style="fill:none;stroke:#000000;stroke-linecap:round;stroke-miterlimit:10;stroke-width:23.500000px"/>
        </g>
        <g name="ring-2" transform="rotate(-85 400 400)">
            <path d="M 522.025736 587.965602 A 224.101200 224.101200 0 0 0 623.031655 421.868445" data-color="0" style="fill:none;stroke:#000000;stroke-linecap:round;stroke-miterlimit:10;stroke-width:23.500000px"/>
            <path d="M 406.597246 624.004072 A 224.101200 224.101200 0 0 0 483.192398 608.087416" data-color="1" style="fill:none;stroke:#885533;stroke-linecap:round;stroke-miterlimit:10;stroke-width:23.500000px"/>
            <path d="M 345.917027 617.477309 A 224.101200 224.101200 0 0 0 362.962317 621.019361" data-color="0" style="fill:none;stroke:#000000;stroke-linecap:round;stroke-miterlimit:10;stroke-width:23.500000px"/>
            <path d="M 289.247895 594.821249 A 224.101200 224.101200 0 0 0 304.705465 602.830716" data-color="0" style="fill:none;stroke:#000000;stroke-linecap:round;stroke-miterlimit:10;stroke-width:23.500000px"/>
            <path d="M 240.792739 557.716188 A 224.101200 224.101200 0 0 0 253.516172 569.599045" data-color="1" style="fill:none;stroke:#885533;stroke-linecap:round;stroke-miterlimit:10;stroke-width:23.500000px"/>
            <path d="M 204.145258 508.914039 A 224.101200 224.101200 0 0 0 213.190915 523.788989" data-color="0" style="fill:none;stroke:#000000;stroke-linecap:round;stroke-miterlimit:10;stroke-width:23.500000px"/>
            <path d="M 182.023427 452.034234 A 224.101200 224.101200 0 0 0 186.720434 468.798069" data-color="1" style="fill:none;stroke:#885533;stroke-linecap:round;stroke-miterlimit:10;stroke-width:23.500000px"/>
            <path d="M 186.720434 331.201931 A 224.101200 224.101200 0 0 0 176.067921 408.704712" data-color="0" style="fill:none;stroke:#000000;stroke-linecap:round;stroke-miterlimit:10;stroke-width:23.500000px"/>
            <path d="M 213.190915 276.211011 A 224.101200 224.101200 0 0 0 204.145258 291.085961" data-color="0" style="fill:none;stroke:#000000;stroke-linecap:round;stroke-miterlimit:10;stroke-width:23.500000px"/>
            <path d="M 253.516172 230.400955 A 224.101200 224.101200 0 0 0 240.792739 242.283812" data-color="1" style="fill:none;stroke:#885533;stroke-linecap:round;stroke-miterlimit:10;stroke-width:23.500000px"/>
            <path d="M 304.705465 197.169284 A 224.101200 224.101200 0 0 0 289.247895 205.178751" data-color="0" style="fill:none;stroke:#000000;stroke-linecap:round;stroke-miterlimit:10;stroke-width:23.500000px"/>
            <path d="M 362.962317 178.980639 A 224.101200 224.101200 0 0 0 345.917027 182.522691" data-color="1" style="fill:none;stroke:#885533;stroke-linecap:round;stroke-miterlimit:10;stroke-width:23.500000px"/>
            <path d="M 483.192398 191.912584 A 224.101200 224.101200 0 0 0 406.597246 175.995928" data-color="1" style="fill:none;stroke:#885533;stroke-linecap:round;stroke-miterlimit:10;stroke-width:23.500000px"/>
            <path d="M 536.248711 222.074070 A 224.101200 224.101200 0 0 0 522.025736 212.034398" data-color="0" style="fill:none;stroke:#000000;stroke-linecap:round;stroke-miterlimit:10;stroke-width:23.500000px"/>
            <path d="M 579.200081 265.431508 A 224.101200 224.101200 0 0 0 568.213203 251.926821" data-color="1" style="fill:none;stroke:#885533;stroke-linecap:round;stroke-miterlimit:10;stroke-width:23.500000px"/>
            <path d="M 623.031655 378.131555 A 224.101200 224.101200 0 0 0 601.925067 302.801156" data-color="0" style="fill:none;stroke:#000000;stroke-linecap:round;stroke-miterlimit:10;stroke-width:23.500000px"/>
        </g>
        <g name="ring-3" transform="rotate(-70 400 400)">
            <path d="M 667.777198 441.675002 A 271.000800 271.000800 0 0 0 669.969560 423.619276" data-color="0" style="fill:none;stroke:#000000;stroke-linecap:round;stroke-miterlimit:10;stroke-width:23.500000px"/>
            <path d="M 617.737595 561.343650 A 271.000800 271.000800 0 0 0 656.472273 487.540887" data-color="1" style="fill:none;stroke:#885533;stroke-linecap:round;stroke-miterlimit:10;stroke-width:23.500000px"/>
            <path d="M 213.587360 596.702214 A 271.000800 271.000800 0 0 0 586.412640 596.702214" data-color="0" style="fill:none;stroke:#000000;stroke-linecap:round;stroke-miterlimit:10;stroke-width:23.500000px"/>
            <path d="M 171.930251 546.374941 A 271.000800 271.000800 0 0 0 182.262405 561.343650" data-color="1" style="fill:none;stroke:#885533;stroke-linecap:round;stroke-miterlimit:10;stroke-width:23.500000px"/>
            <path d="M 143.527727 487.540887 A 271.000800 271.000800 0 0 0 149.977401 504.547280" data-color="1" style="fill:none;stroke:#885533;stroke-linecap:round;stroke-miterlimit:10;stroke-width:23.500000px"/>
            <path d="M 130.030440 423.619276 A 271.000800 271.000800 0 0 0 132.222802 441.675002" data-color="0" style="fill:none;stroke:#000000;stroke-linecap:round;stroke-miterlimit:10;stroke-width:23.500000px"/>
            <path d="M 132.222802 358.324998 A 271.000800 271.000800 0 0 0 130.030440 376.380724" data-color="1" style="fill:none;stroke:#885533;stroke-linecap:round;stroke-miterlimit:10;stroke-width:23.500000px"/>
            <path d="M 149.977401 295.452720 A 271.000800 271.000800 0 0 0 143.527727 312.459113" data-color="0" style="fill:none;stroke:#000000;stroke-linecap:round;stroke-miterlimit:10;stroke-width:23.500000px"/>
            <path d="M 227.201527 191.236686 A 271.000800 271.000800 0 0 0 171.930251 253.625059" data-color="0" style="fill:none;stroke:#000000;stroke-linecap:round;stroke-miterlimit:10;stroke-width:23.500000px"/>
            <path d="M 409.094170 129.151833 A 271.000800 271.000800 0 0 0 266.078093 164.402130" data-color="1" style="fill:none;stroke:#885533;stroke-linecap:round;stroke-miterlimit:10;stroke-width:23.500000px"/>
            <path d="M 533.921907 164.402130 A 271.000800 271.000800 0 0 0 455.988299 134.845811" data-color="0" style="fill:none;stroke:#000000;stroke-linecap:round;stroke-miterlimit:10;stroke-width:23.500000px"/>
            <path d="M 656.472273 312.459113 A 271.000800 271.000800 0 0 0 572.798473 191.236686" data-color="1" style="fill:none;stroke:#885533;stroke-linecap:round;stroke-miterlimit:10;stroke-width:23.500000px"/>
            <path d="M 669.969560 376.380724 A 271.000800 271.000800 0 0 0 667.777198 358.324998" data-color="1" style="fill:none;stroke:#885533;stroke-linecap:round;stroke-miterlimit:10;stroke-width:23.500000px"/>
        </g>
        <g name="ring-4" transform="rotate(-63 400 400)">
            <path d="M 666.488596 573.333472 A 317.900400 317.900400 0 0 0 717.046671 423.282452" data-color="0" style="fill:none;stroke:#000000;stroke-linecap:round;stroke-miterlimit:10;stroke-width:23.500000px"/>
            <path d="M 622.996668 626.568202 A 317.900400 317.900400 0 0 0 638.308717 610.403469" data-color="1" style="fill:none;stroke:#885533;stroke-linecap:round;stroke-miterlimit:10;stroke-width:23.500000px"/>
            <path d="M 440.412867 715.321208 A 317.900400 317.900400 0 0 0 587.506665 656.713683" data-color="1" style="fill:none;stroke:#885533;stroke-linecap:round;stroke-miterlimit:10;stroke-width:23.500000px"/>
            <path d="M 304.277786 703.146701 A 317.900400 317.900400 0 0 0 393.916254 717.842182" data-color="0" style="fill:none;stroke:#000000;stroke-linecap:round;stroke-miterlimit:10;stroke-width:23.500000px"/>
            <path d="M 140.339643 583.404370 A 317.900400 317.900400 0 0 0 261.020074 685.911253" data-color="0" style="fill:none;stroke:#000000;stroke-linecap:round;stroke-miterlimit:10;stroke-width:23.500000px"/>
            <path d="M 82.294594 388.867195 A 317.900400 317.900400 0 0 0 116.332927 543.504898" data-color="1" style="fill:none;stroke:#885533;stroke-linecap:round;stroke-miterlimit:10;stroke-width:23.500000px"/>
            <path d="M 116.332927 256.495102 A 317.900400 317.900400 0 0 0 87.329146 342.575256" data-color="0" style="fill:none;stroke:#000000;stroke-linecap:round;stroke-miterlimit:10;stroke-width:23.500000px"/>
            <path d="M 202.806879 150.649769 A 317.900400 317.900400 0 0 0 140.339643 216.595630" data-color="0" style="fill:none;stroke:#000000;stroke-linecap:round;stroke-miterlimit:10;stroke-width:23.500000px"/>
            <path d="M 261.020074 114.088747 A 317.900400 317.900400 0 0 0 241.348138 124.518147" data-color="0" style="fill:none;stroke:#000000;stroke-linecap:round;stroke-miterlimit:10;stroke-width:23.500000px"/>
            <path d="M 325.731815 90.896618 A 317.900400 317.900400 0 0 0 304.277786 96.853299" data-color="1" style="fill:none;stroke:#885533;stroke-linecap:round;stroke-miterlimit:10;stroke-width:23.500000px"/>
            <path d="M 393.916254 82.157818 A 317.900400 317.900400 0 0 0 371.683298 83.363254" data-color="1" style="fill:none;stroke:#885533;stroke-linecap:round;stroke-miterlimit:10;stroke-width:23.500000px"/>
            <path d="M 462.385163 88.280967 A 317.900400 317.900400 0 0 0 440.412867 84.678792" data-color="0" style="fill:none;stroke:#000000;stroke-linecap:round;stroke-miterlimit:10;stroke-width:23.500000px"/>
            <path d="M 527.937010 108.979750 A 317.900400 317.900400 0 0 0 507.252776 100.738398" data-color="1" style="fill:none;stroke:#885533;stroke-linecap:round;stroke-miterlimit:10;stroke-width:23.500000px"/>
            <path d="M 587.506665 143.286317 A 317.900400 317.900400 0 0 0 569.077664 130.791144" data-color="1" style="fill:none;stroke:#885533;stroke-linecap:round;stroke-miterlimit:10;stroke-width:23.500000px"/>
            <path d="M 677.967718 245.744977 A 317.900400 317.900400 0 0 0 622.996668 173.431798" data-color="1" style="fill:none;stroke:#885533;stroke-linecap:round;stroke-miterlimit:10;stroke-width:23.500000px"/>
            <path d="M 704.629257 309.106216 A 317.900400 317.900400 0 0 0 697.519814 288.006139" data-color="1" style="fill:none;stroke:#885533;stroke-linecap:round;stroke-miterlimit:10;stroke-width:23.500000px"/>
            <path d="M 717.046671 376.717548 A 317.900400 317.900400 0 0 0 714.639335 354.582459" data-color="0" style="fill:none;stroke:#000000;stroke-linecap:round;stroke-miterlimit:10;stroke-width:23.500000px"/>
        </g>
        <g name="ring-5" transform="rotate(-70 400 400)">
            <path d="M 718.357224 578.122762 A 364.800000 364.800000 0 0 0 764.119574 422.270507" data-color="0" style="fill:none;stroke:#000000;stroke-linecap:round;stroke-miterlimit:10;stroke-width:23.500000px"/>
            <path d="M 678.894140 635.153352 A 364.800000 364.800000 0 0 0 694.276533 615.593047" data-color="0" style="fill:none;stroke:#000000;stroke-linecap:round;stroke-miterlimit:10;stroke-width:23.500000px"/>
            <path d="M 571.518704 721.963312 A 364.800000 364.800000 0 0 0 648.157320 667.389200" data-color="0" style="fill:none;stroke:#000000;stroke-linecap:round;stroke-miterlimit:10;stroke-width:23.500000px"/>
            <path d="M 370.224207 763.582786 A 364.800000 364.800000 0 0 0 531.002772 740.466318" data-color="0" style="fill:none;stroke:#000000;stroke-linecap:round;stroke-miterlimit:10;stroke-width:23.500000px"/>
            <path d="M 301.953800 751.377265 A 364.800000 364.800000 0 0 0 326.136556 757.243939" data-color="1" style="fill:none;stroke:#885533;stroke-linecap:round;stroke-miterlimit:10;stroke-width:23.500000px"/>
            <path d="M 178.383315 689.767294 A 364.800000 364.800000 0 0 0 259.862505 736.809327" data-color="1" style="fill:none;stroke:#885533;stroke-linecap:round;stroke-miterlimit:10;stroke-width:23.500000px"/>
            <path d="M 86.562552 586.644062 A 364.800000 364.800000 0 0 0 144.721462 660.599133" data-color="0" style="fill:none;stroke:#000000;stroke-linecap:round;stroke-miterlimit:10;stroke-width:23.500000px"/>
            <path d="M 56.904154 523.952734 A 364.800000 364.800000 0 0 0 66.152678 547.054430" data-color="1" style="fill:none;stroke:#885533;stroke-linecap:round;stroke-miterlimit:10;stroke-width:23.500000px"/>
            <path d="M 39.646133 456.781431 A 364.800000 364.800000 0 0 0 44.355500 481.215944" data-color="1" style="fill:none;stroke:#885533;stroke-linecap:round;stroke-miterlimit:10;stroke-width:23.500000px"/>
            <path d="M 35.412241 387.557899 A 364.800000 364.800000 0 0 0 35.412241 412.442101" data-color="1" style="fill:none;stroke:#885533;stroke-linecap:round;stroke-miterlimit:10;stroke-width:23.500000px"/>
            <path d="M 44.355500 318.784056 A 364.800000 364.800000 0 0 0 39.646133 343.218569" data-color="1" style="fill:none;stroke:#885533;stroke-linecap:round;stroke-miterlimit:10;stroke-width:23.500000px"/>
            <path d="M 66.152678 252.945570 A 364.800000 364.800000 0 0 0 56.904154 276.047266" data-color="1" style="fill:none;stroke:#885533;stroke-linecap:round;stroke-miterlimit:10;stroke-width:23.500000px"/>
            <path d="M 100.015967 192.422014 A 364.800000 364.800000 0 0 0 86.562552 213.355938" data-color="0" style="fill:none;stroke:#000000;stroke-linecap:round;stroke-miterlimit:10;stroke-width:23.500000px"/>
            <path d="M 259.862505 63.190673 A 364.800000 364.800000 0 0 0 127.549396 157.410412" data-color="0" style="fill:none;stroke:#000000;stroke-linecap:round;stroke-miterlimit:10;stroke-width:23.500000px"/>
            <path d="M 593.069055 90.478789 A 364.800000 364.800000 0 0 0 301.953800 48.622735" data-color="0" style="fill:none;stroke:#000000;stroke-linecap:round;stroke-miterlimit:10;stroke-width:23.500000px"/>
            <path d="M 648.157320 132.610800 A 364.800000 364.800000 0 0 0 629.351095 116.315113" data-color="0" style="fill:none;stroke:#000000;stroke-linecap:round;stroke-miterlimit:10;stroke-width:23.500000px"/>
            <path d="M 694.276533 184.406953 A 364.800000 364.800000 0 0 0 678.894140 164.846648" data-color="1" style="fill:none;stroke:#885533;stroke-linecap:round;stroke-miterlimit:10;stroke-width:23.500000px"/>
            <path d="M 729.759825 243.995200 A 364.800000 364.800000 0 0 0 718.357224 221.877238" data-color="1" style="fill:none;stroke:#885533;stroke-linecap:round;stroke-miterlimit:10;stroke-width:23.500000px"/>
            <path d="M 764.119574 377.729493 A 364.800000 364.800000 0 0 0 746.314048 285.345650" data-color="0" style="fill:none;stroke:#000000;stroke-linecap:round;stroke-miterlimit:10;stroke-width:23.500000px"/>
        </g>
    </g>
    <g id="Logo" data-logo-type="Camera" transform="translate(292.285699 289.475699) scale(1.874000 1.874000)">
        <path d="M56.9500008,40.9528084c-8.9051094,0-16.0505219,7.1454086-16.0505219,16.1038475c0,8.9051132,7.1454124,16.0505219,16.0505219,16.0505219s16.050518-7.1454086,16.050518-16.0505219C73.0005188,48.0448914,65.8551102,40.9528084,56.9500008,40.9528084z M56.9500008,67.7214508c-5.8656387,0-10.6647949-4.7458305-10.6647949-10.6647949c0-5.9722939,4.7458305-10.7181244,10.6647949-10.7181244s10.6647987,4.7458305,10.6647987,10.7181244C67.6147995,62.975605,62.8689651,67.7214508,56.9500008,67.7214508z" style="fill:#000000"/>
        <path d="M78.919487,42.1259422c-2.1862869,0-3.9992981,1.8663368-3.9992981,3.9459686c0,2.2396164,1.8130112,3.9459724,3.9992981,3.9459724c2.1329575-0.0533257,3.9459686-1.7596855,3.9459686-3.9459724C82.8654556,43.9389534,81.0524445,42.1259422,78.919487,42.1259422z" style="fill:#000000"/>
        <path d="M57.0033264,0C57.0033264,0,56.9500008,0,57.0033264,0C25.4888554,0,0,25.4888554,0,56.9500008s25.4888554,56.9500008,56.9500008,56.9500008s56.9500008-25.4888535,56.9500008-56.9500008C113.9000015,25.542181,88.4111481,0.053311,57.0033264,0z M93.7435455,72.733902c0,6.3455505-3.412735,9.7049713-9.8116074,9.7049713H29.9147377c-6.4522038,0-9.8116074-3.3594055-9.8116074-9.7049713V41.4860458c0-6.3455467,3.3594036-9.7049694,9.8116074-9.7049694h7.785305c2.3462524,0,3.0927849-0.4265842,4.5325356-1.9196663l2.3462524-2.5062332c1.5463943-1.6530457,3.1461105-2.4529057,6.185585-2.4529057H62.975605c3.0394707,0,4.6391945,0.79986,6.1855812,2.4529057l2.3462524,2.5062332c1.4397583,1.4930649,2.1862869,1.9196663,4.5325394,1.9196663h7.8919449c6.4522018,0,9.8116074,3.3594036,9.8116074,9.7049694V72.733902H93.7435455z" style="fill:#000000"/>
    </g>
</svg>
